<svg width="21" height="24" viewBox="0 0 21 24" fill="none" xmlns="http://www.w3.org/2000/svg">
<path fill-rule="evenodd" clip-rule="evenodd" d="M4.77273 4.24243C3.19118 4.24243 1.90909 5.66698 1.90909 7.42425V18.0303C1.90909 19.7876 3.19118 21.2121 4.77273 21.2121H16.2273C17.8088 21.2121 19.0909 19.7876 19.0909 18.0303V7.42425C19.0909 5.66698 17.8088 4.24243 16.2273 4.24243H4.77273ZM0 7.42425C0 4.49546 2.13682 2.12122 4.77273 2.12122H16.2273C18.8632 2.12122 21 4.49546 21 7.42425V18.0303C21 20.9591 18.8632 23.3333 16.2273 23.3333H4.77273C2.13682 23.3333 0 20.9591 0 18.0303V7.42425Z" fill="white"/>
<path fill-rule="evenodd" clip-rule="evenodd" d="M6.68184 0C7.20902 0 7.63639 0.474849 7.63639 1.06061V5.30303C7.63639 5.88879 7.20902 6.36364 6.68184 6.36364C6.15466 6.36364 5.72729 5.88879 5.72729 5.30303V1.06061C5.72729 0.474849 6.15466 0 6.68184 0Z" fill="white"/>
<path fill-rule="evenodd" clip-rule="evenodd" d="M14.3182 0C14.8454 0 15.2727 0.474849 15.2727 1.06061V5.30303C15.2727 5.88879 14.8454 6.36364 14.3182 6.36364C13.791 6.36364 13.3636 5.88879 13.3636 5.30303V1.06061C13.3636 0.474849 13.791 0 14.3182 0Z" fill="white"/>
<path fill-rule="evenodd" clip-rule="evenodd" d="M0 9.54547C0 8.95971 0.427365 8.48486 0.954545 8.48486H20.0455C20.5726 8.48486 21 8.95971 21 9.54547C21 10.1312 20.5726 10.6061 20.0455 10.6061H0.954545C0.427365 10.6061 0 10.1312 0 9.54547Z" fill="white"/>
</svg>
